<svg width="22" height="19" viewBox="0 0 22 19" fill="none" xmlns="http://www.w3.org/2000/svg">
<path d="M22 9.0328C22 9.53906 21.6238 9.95745 21.1357 10.0237L21 10.0328L3.42133 10.032L9.77198 16.3567C10.1633 16.7464 10.1647 17.3796 9.77503 17.7709C9.42077 18.1267 8.86529 18.1602 8.47318 17.8705L8.36082 17.774L0.294151 9.74196C0.242563 9.69059 0.197756 9.635 0.159725 9.5763C0.148985 9.55863 0.13805 9.54055 0.127686 9.52211C0.118151 9.5063 0.109535 9.48988 0.101406 9.47329C0.0901184 9.44914 0.0790882 9.4242 0.0690727 9.39874C0.060936 9.37912 0.054142 9.36003 0.047945 9.34079C0.0405769 9.31693 0.0334187 9.29151 0.0272617 9.26569C0.0226841 9.24767 0.0190582 9.23033 0.0158958 9.21291C0.0114498 9.18701 0.00766373 9.1602 0.00496292 9.13307C0.00263214 9.11238 0.00122833 9.09187 0.000452042 9.07135C0.00025177 9.05891 0 9.04589 0 9.0328L0.000499725 8.99406C0.00126648 8.97443 0.00260735 8.95483 0.00452423 8.93526L0 9.0328C0 8.9697 0.00584412 8.90796 0.0170231 8.84809C0.0196152 8.8338 0.0227051 8.81912 0.026125 8.8045C0.0332279 8.7744 0.0414371 8.74541 0.05089 8.71699C0.0555286 8.70287 0.0609341 8.68778 0.0667114 8.67281C0.0783958 8.64272 0.0910988 8.61403 0.105072 8.58609C0.111563 8.57296 0.118834 8.5592 0.126446 8.54559C0.138943 8.52338 0.151817 8.50227 0.16543 8.4817C0.175035 8.46714 0.185671 8.45198 0.196777 8.43706L0.205431 8.42554C0.232372 8.39034 0.2616 8.35698 0.292892 8.32569L0.294092 8.32476L8.36076 0.291431C8.75209 -0.0982842 9.38525 -0.0969733 9.77497 0.294359C10.1293 0.650115 10.1604 1.20573 9.8691 1.59661L9.77204 1.70857L3.424 8.032L21 8.0328C21.5523 8.0328 22 8.48051 22 9.0328Z" fill="#13151B"/>
</svg>
