<svg width="25" height="17" viewBox="0 0 25 17" fill="none" xmlns="http://www.w3.org/2000/svg">
<path fill-rule="evenodd" clip-rule="evenodd" d="M7.56836 0L8.08105 0.125033C8.36426 0.195052 8.74023 0.320085 8.92578 0.405108C9.10645 0.490131 9.39453 0.655175 9.57031 0.775207C9.74609 0.895239 10.0195 1.1353 10.1855 1.31035C10.3467 1.48039 10.5762 1.77047 10.6934 1.95052C10.8105 2.13057 10.9766 2.45565 11.0645 2.67571C11.1523 2.89577 11.2598 3.25087 11.2988 3.46592C11.3428 3.67598 11.377 4.04108 11.377 4.27614C11.377 4.5112 11.3477 4.8663 11.3086 5.06635C11.2695 5.2614 11.1719 5.6065 11.0889 5.82655C11.0059 6.04661 10.8301 6.39671 10.6982 6.60176C10.5664 6.80682 10.3076 7.1319 9.79004 7.66204L9.93652 7.76707C10.0195 7.82209 10.2588 8.05215 10.4785 8.27221C10.6934 8.49727 10.9473 8.80235 11.0449 8.95239C11.1377 9.10243 11.2695 9.34249 11.3379 9.47753C11.4062 9.61756 11.5186 9.90764 11.5869 10.1277C11.6553 10.3478 11.7383 10.7079 11.7725 10.9279C11.8115 11.178 11.8213 11.5281 11.8018 11.8532C11.7822 12.1432 11.7285 12.5333 11.6797 12.7284C11.6309 12.9234 11.5234 13.2335 11.4453 13.4286C11.3672 13.6236 11.1914 13.9487 11.0596 14.1538C10.9277 14.3588 10.6641 14.6889 10.4736 14.879C10.2881 15.074 10 15.3241 9.83887 15.4391C9.67773 15.5491 9.40918 15.7092 9.24316 15.7992C9.07227 15.8842 8.74512 16.0093 8.51074 16.0743C8.27148 16.1393 7.97852 16.2193 7.85156 16.2493C7.69043 16.2893 6.55273 16.3043 4.15039 16.3043C0.844727 16.3043 0.673828 16.2993 0.498047 16.2093C0.400391 16.1593 0.27832 16.0743 0.234375 16.0243C0.19043 15.9693 0.117188 15.8442 0.078125 15.7442C0.00976563 15.5742 0 14.7439 0 8.13717C0 1.05028 0.00488281 0.715191 0.0927734 0.52514C0.141602 0.415111 0.224609 0.290077 0.273437 0.245065C0.322266 0.200053 0.429687 0.125033 0.512695 0.0850225C0.644531 0.0150038 1.05957 0.00500133 7.56836 0ZM1.66016 6.85183C7.04102 6.85183 7.54395 6.83682 7.8125 6.77181C7.98828 6.73179 8.26172 6.62177 8.42285 6.52674C8.58398 6.43672 8.83301 6.24166 8.97461 6.09162C9.12109 5.94659 9.31152 5.69152 9.39941 5.52647C9.49219 5.36143 9.59961 5.09136 9.64355 4.92631C9.68262 4.76127 9.7168 4.46619 9.7168 4.27614C9.7168 4.08109 9.6875 3.81102 9.64844 3.67598C9.61426 3.53594 9.5166 3.29088 9.43848 3.12583C9.35547 2.96079 9.19434 2.71572 9.07715 2.58069C8.95996 2.44565 8.73047 2.2506 8.56934 2.14557C8.4082 2.03554 8.13477 1.90051 7.95898 1.84049C7.64648 1.73046 7.57813 1.73046 4.65332 1.71046L1.66504 1.69545L1.66016 6.85183ZM1.66016 14.6039C7.38281 14.5739 7.71973 14.5639 7.9834 14.4839C8.14453 14.4338 8.43262 14.3138 8.61816 14.2138C8.82324 14.1038 9.0918 13.8937 9.28223 13.7037C9.45801 13.5236 9.68262 13.2335 9.78027 13.0535C9.87793 12.8734 10.0049 12.5483 10.0586 12.3283C10.1123 12.1082 10.1562 11.7831 10.1562 11.6031C10.1562 11.423 10.1318 11.143 10.1025 10.9779C10.0781 10.8129 9.96094 10.4878 9.85352 10.2527C9.69727 9.91764 9.5752 9.7476 9.28223 9.44752C9.01367 9.17245 8.81348 9.01741 8.54492 8.88237C8.34473 8.78234 8.02734 8.66731 7.83691 8.6273C7.55859 8.56728 6.95313 8.55228 4.58008 8.55228H1.66016V14.6039ZM19.0674 3.87603C19.4971 3.88604 19.9512 3.92605 20.166 3.97606C20.3662 4.02107 20.708 4.1211 20.9229 4.19612C21.1377 4.27114 21.499 4.43118 21.7285 4.55622C21.958 4.67625 22.3096 4.90131 22.5098 5.05135C22.71 5.20639 23.0176 5.47646 23.1934 5.65651C23.3691 5.83156 23.6133 6.11163 23.7354 6.27667C23.8574 6.44172 24.0625 6.7568 24.1895 6.97686C24.3115 7.19692 24.4775 7.54701 24.5557 7.75207C24.6338 7.95712 24.7412 8.30722 24.7949 8.52727C24.8486 8.74733 24.917 9.03241 24.9463 9.16244C24.9756 9.29748 25 9.60256 25 9.85263C25 10.2427 24.9854 10.3278 24.8828 10.4878C24.8145 10.5928 24.6777 10.7279 24.3896 10.8979L19.4971 10.9029C16.8018 10.9029 14.5996 10.9179 14.5996 10.9379C14.5996 10.9629 14.6436 11.133 14.7021 11.328C14.7607 11.5181 14.8633 11.8132 14.9365 11.9782C15.0098 12.1432 15.166 12.4233 15.2832 12.6034C15.4053 12.7834 15.6445 13.0735 15.8203 13.2535C15.9961 13.4336 16.3135 13.6987 16.5283 13.8437C16.7432 13.9887 17.0898 14.1738 17.2998 14.2538C17.5049 14.3338 17.8369 14.4389 18.0322 14.4839C18.2275 14.5239 18.623 14.5589 18.9209 14.5589C19.2236 14.5589 19.6191 14.5289 19.8242 14.4839C20.0244 14.4389 20.332 14.3488 20.5078 14.2788C20.6836 14.2088 20.9473 14.0788 21.0938 13.9937C21.2402 13.9087 21.4893 13.7337 21.6455 13.6086C21.8018 13.4836 22.0166 13.3035 22.1191 13.2135C22.2266 13.1285 22.3975 13.0385 22.5 13.0235C22.5977 13.0035 22.7588 13.0135 22.8516 13.0435C22.9443 13.0735 23.0859 13.1435 23.1592 13.1985C23.2324 13.2585 23.3252 13.3786 23.3691 13.4636C23.4131 13.5536 23.4521 13.7287 23.4521 13.8537C23.4521 13.9787 23.418 14.1438 23.3789 14.2288C23.3398 14.3088 23.1641 14.5089 22.9932 14.6689C22.8223 14.829 22.5049 15.084 22.29 15.2291C22.0752 15.3741 21.7676 15.5591 21.6064 15.6442C21.4453 15.7242 21.1182 15.8592 20.874 15.9443C20.6348 16.0293 20.2246 16.1393 19.9707 16.1893C19.668 16.2493 19.292 16.2793 18.8965 16.2743C18.457 16.2743 18.1396 16.2393 17.7734 16.1593C17.4902 16.0943 17.1631 16.0093 17.041 15.9693C16.9189 15.9292 16.6455 15.8142 16.4307 15.7192C16.2158 15.6242 15.8301 15.4041 15.5762 15.2291C15.3223 15.059 14.9365 14.7389 14.7217 14.5239C14.5068 14.3038 14.2285 13.9937 14.1064 13.8287C13.9844 13.6636 13.7793 13.3486 13.6572 13.1285C13.5352 12.9084 13.3545 12.5233 13.2617 12.2783C13.1689 12.0282 13.0469 11.5931 12.9883 11.303C12.9102 10.9179 12.8809 10.5978 12.8809 10.1027C12.8809 9.7326 12.9053 9.26747 12.9346 9.07742C12.9639 8.88237 13.0615 8.50227 13.1396 8.22719C13.2227 7.95212 13.4033 7.502 13.54 7.22693C13.6816 6.95185 13.916 6.55675 14.0674 6.35169C14.2188 6.14664 14.5264 5.79655 14.751 5.57649C14.9756 5.35143 15.3467 5.04635 15.5762 4.8913C15.8057 4.73626 16.1572 4.53121 16.3574 4.43618C16.5576 4.34116 16.9092 4.20112 17.1387 4.1261C17.3682 4.05608 17.7295 3.96106 17.9443 3.92605C18.208 3.87603 18.5742 3.86103 19.0674 3.87603ZM17.5049 5.79154C17.29 5.86656 16.9434 6.02661 16.7285 6.15164C16.5137 6.27667 16.167 6.54675 15.9521 6.7518C15.7373 6.95686 15.4687 7.26194 15.3564 7.42698C15.2393 7.59202 15.0684 7.8821 14.9756 8.07715C14.8828 8.2672 14.7607 8.58229 14.7021 8.77734C14.6436 8.96739 14.5996 9.14244 14.5996 9.16244C14.5996 9.18745 16.543 9.20245 18.9209 9.20245H23.2422C23.1982 8.91238 23.1201 8.65731 23.0469 8.45225C22.9687 8.2472 22.8223 7.94212 22.7295 7.77707C22.6318 7.61203 22.4463 7.34696 22.3242 7.18692C22.1973 7.02687 21.9189 6.7468 21.7041 6.57175C21.4893 6.3917 21.1475 6.16164 20.9473 6.05161C20.7471 5.94659 20.3857 5.79655 20.1416 5.72653C19.79 5.6165 19.5752 5.58649 19.0674 5.57149C18.7207 5.56648 18.3105 5.57649 18.1641 5.6065C18.0176 5.6315 17.7197 5.71652 17.5049 5.79154ZM18.8232 0.465124C22.1631 0.475127 22.4512 0.480128 22.5977 0.560149C22.6855 0.610163 22.7979 0.710189 22.8564 0.785209C22.9102 0.865231 22.9785 1.00527 23.0078 1.10029C23.0371 1.19532 23.0469 1.35536 23.0322 1.45039C23.0127 1.54541 22.9492 1.70045 22.8906 1.79548C22.8271 1.8905 22.7002 2.00554 22.6074 2.05555C22.4463 2.14557 22.2461 2.15057 14.9658 2.14557L14.7803 2.03554C14.6777 1.97553 14.5459 1.84549 14.4873 1.75047C14.4189 1.63043 14.3848 1.4954 14.3848 1.32535C14.3848 1.18532 14.4238 1.00027 14.4678 0.910243C14.5166 0.82522 14.624 0.700187 14.7119 0.640171C14.7998 0.580155 14.9463 0.510136 15.0391 0.495132C15.1318 0.475127 16.8359 0.465124 18.8232 0.465124Z" fill="#13151B"/>
</svg>
