<svg width="25" height="26" viewBox="0 0 25 26" fill="none" xmlns="http://www.w3.org/2000/svg">
<path fill-rule="evenodd" clip-rule="evenodd" d="M24.0385 23.1269C24.5692 23.1269 25 23.5577 25 24.0884C25 24.6192 24.5692 25.0499 24.0385 25.0499H14.74C14.2092 25.0499 13.7785 24.6192 13.7785 24.0884C13.7785 23.5577 14.2092 23.1269 14.74 23.1269H24.0385ZM18.0973 1.60706C18.1614 1.65706 20.3063 3.32368 20.3063 3.32368C21.0857 3.78777 21.6947 4.61724 21.9255 5.59927C22.1549 6.57104 21.9883 7.57358 21.4537 8.42099C21.4501 8.42665 21.4466 8.43223 21.4342 8.44884L21.4245 8.46168C21.3378 8.57604 20.9605 9.05302 19.0567 11.4383C19.039 11.4696 19.0189 11.4989 18.9971 11.5273C18.965 11.5693 18.93 11.6078 18.8927 11.6429C18.7629 11.8064 18.6257 11.9782 18.4815 12.1588L18.1893 12.5248C17.5864 13.2799 16.8712 14.1753 16.0228 15.2373L15.5873 15.7823C13.9493 17.8324 11.8516 20.4574 9.16423 23.8193C8.57578 24.5527 7.69375 24.9796 6.74634 24.9911L2.08107 25.0501H2.06825C1.62339 25.0501 1.23622 24.745 1.13238 24.3104L0.082401 19.8605C-0.13426 18.9387 0.0811189 17.9874 0.67213 17.249L12.7488 2.14422C12.7539 2.13909 12.7577 2.13268 12.7629 2.12756C14.0872 0.544262 16.482 0.310934 18.0973 1.60706ZM11.4023 6.9061L2.17338 18.4502C1.95415 18.7246 1.87338 19.0784 1.95415 19.4182L2.82721 23.1168L6.72326 23.0681C7.09377 23.0642 7.43607 22.8988 7.66299 22.6168C8.83153 21.1548 10.3002 19.3172 11.8101 17.4277L12.8795 16.0895C14.2956 14.3173 15.6946 12.5663 16.8651 11.1007L11.4023 6.9061ZM14.2436 3.35445L12.6035 5.40358L18.0659 9.59697C19.1173 8.28004 19.809 7.41268 19.8729 7.32999C20.0832 6.98898 20.1652 6.50694 20.055 6.04285C19.9422 5.56722 19.646 5.16338 19.2191 4.90569C19.1281 4.84288 16.9679 3.16599 16.9012 3.11343C16.0884 2.46216 14.9026 2.57498 14.2436 3.35445Z" fill="#13151B"/>
</svg>
