<svg width="25" height="24" viewBox="0 0 25 24" fill="none" xmlns="http://www.w3.org/2000/svg">
<path fill-rule="evenodd" clip-rule="evenodd" d="M18.2081 0.906281C22.0802 0.906281 25 4.06558 25 8.25512V16.2412C25 18.3854 24.2419 20.3226 22.864 21.697C21.6279 22.9284 20.0244 23.5807 18.2267 23.5807H6.76977C4.97558 23.5807 3.37326 22.9295 2.13605 21.697C0.75814 20.3226 0 18.3854 0 16.2412V8.25512C0 4.06558 2.91977 0.906281 6.79186 0.906281H18.2081ZM18.2081 2.65047H6.79186C3.86744 2.65047 1.74419 5.00744 1.74419 8.25512V16.2412C1.74419 17.9191 2.32093 19.4179 3.36744 20.4609C4.26977 21.3621 5.44767 21.8365 6.77326 21.8365H18.2081C18.2105 21.8342 18.2198 21.8365 18.2267 21.8365C19.5535 21.8365 20.7302 21.3621 21.6326 20.4609C22.6802 19.4179 23.2558 17.9191 23.2558 16.2412V8.25512C23.2558 5.00744 21.1326 2.65047 18.2081 2.65047ZM20.0407 8.03279C20.3442 8.40605 20.2872 8.95489 19.914 9.25954L14.7465 13.4595C14.093 13.9781 13.3116 14.2374 12.5314 14.2374C11.7535 14.2374 10.9779 13.9805 10.3291 13.4665L5.11395 9.26186C4.73837 8.95954 4.68023 8.40954 4.9814 8.03512C5.28488 7.66186 5.83372 7.60256 6.20814 7.90372L11.4186 12.1037C12.0733 12.6223 12.9953 12.6223 13.6547 12.0991L18.8128 7.90605C19.1872 7.60023 19.736 7.65837 20.0407 8.03279Z" fill="#13151B"/>
</svg>
