<svg width="25" height="25" viewBox="0 0 25 25" fill="none" xmlns="http://www.w3.org/2000/svg">
<path fill-rule="evenodd" clip-rule="evenodd" d="M12.4267 0.00069753C13.1889 -0.0041861 13.5553 0.0153484 14.0878 0.0983701C14.464 0.15209 14.9574 0.239995 15.1871 0.288832C15.4167 0.342552 15.8026 0.440224 16.042 0.508595C16.2814 0.58185 16.7358 0.738126 17.0436 0.855333C17.3514 0.977424 17.8595 1.20695 18.1672 1.36323C18.475 1.52439 18.9685 1.80764 19.2665 2.00299C19.5645 2.19345 19.9896 2.49623 20.2192 2.67693C20.4488 2.85274 20.9325 3.29226 21.2989 3.65854C21.6604 4.01993 22.0903 4.48387 22.2516 4.6841C22.4079 4.88433 22.7255 5.32385 22.9502 5.66082C23.1749 5.9978 23.5169 6.60337 23.7124 7.00382C23.9127 7.40428 24.1521 7.95613 24.2498 8.22473C24.3524 8.49333 24.5136 9.04518 24.6162 9.44564C24.7188 9.8461 24.8507 10.52 24.9093 10.9351C24.9973 11.5749 25.0119 11.8484 24.9924 12.6933C24.9826 13.2939 24.9386 13.919 24.8898 14.256C24.8409 14.5637 24.7188 15.1497 24.6162 15.5502C24.5136 15.9506 24.3524 16.5025 24.2498 16.7711C24.1521 17.0397 23.9127 17.5915 23.7124 17.992C23.5169 18.3924 23.1701 18.998 22.9453 19.335C22.7206 19.672 22.4079 20.1115 22.2516 20.3117C22.0903 20.5119 21.6604 20.9759 21.2989 21.3373C20.9325 21.7036 20.4488 22.1431 20.2192 22.3189C19.9896 22.4996 19.5841 22.7877 19.3154 22.9635C19.0466 23.1393 18.5532 23.4275 18.2161 23.6033C17.879 23.7742 17.3514 24.0184 17.0436 24.1405C16.7358 24.2577 16.2814 24.414 16.042 24.4872C15.8026 24.5556 15.4167 24.6533 15.1871 24.707C14.9574 24.7558 14.464 24.8437 14.0878 24.8974C13.5846 24.9756 13.1644 25 12.5 25C11.8404 25 11.4056 24.9707 10.8878 24.8974C10.4969 24.8388 9.84714 24.7119 9.44653 24.6093C9.04103 24.5068 8.49384 24.3456 8.22514 24.243C7.95643 24.1454 7.40437 23.9061 7.00375 23.7058C6.59825 23.5105 5.99732 23.1686 5.66022 22.944C5.32312 22.7193 4.88342 22.4019 4.68311 22.2456C4.4828 22.0845 4.01867 21.6547 3.65714 21.2933C3.29073 20.9271 2.85103 20.4436 2.67515 20.214C2.49438 19.9845 2.19148 19.5596 1.99605 19.2617C1.80552 18.9638 1.48307 18.3924 1.28765 17.992C1.09223 17.5866 0.847949 17.0397 0.750238 16.7711C0.647641 16.5025 0.486418 15.9506 0.383821 15.5502C0.281225 15.1448 0.149315 14.4758 0.0906881 14.0607C0.00274812 13.4209 -0.0119085 13.1474 0.00763368 12.3026C0.0174048 11.697 0.0613748 11.0768 0.115116 10.7398C0.159086 10.4321 0.281225 9.8461 0.383821 9.44564C0.486418 9.0403 0.647641 8.49333 0.745353 8.22473C0.847949 7.95613 1.08734 7.40428 1.28765 7.00382C1.48307 6.59848 1.80552 6.0271 2.00094 5.73408C2.19148 5.44106 2.49438 5.0113 2.67026 4.78177C2.85103 4.55224 3.3005 4.05899 3.68157 3.68295C4.05776 3.30203 4.5512 2.85274 4.78082 2.67204C5.01044 2.49623 5.44037 2.19345 5.7335 1.9981C6.02664 1.80764 6.60313 1.48532 7.00375 1.28998C7.40925 1.09463 7.95643 0.850449 8.22514 0.752777C8.49384 0.65022 9.05568 0.484177 9.47095 0.381621C9.88623 0.279064 10.5018 0.15209 10.8389 0.0983701C11.264 0.0348829 11.7476 0.00558116 12.4267 0.00069753ZM10.8878 1.58788C10.6044 1.62695 10.1452 1.71974 9.8618 1.78811C9.57844 1.85648 9.29996 1.92973 9.24133 1.95415C9.12897 1.9981 9.13385 2.00299 9.34882 2.25693C9.47095 2.39368 9.86668 2.87227 10.2233 3.31668C10.5751 3.76109 11.0099 4.32271 11.1858 4.56201C11.3617 4.80619 11.6597 5.23107 11.8502 5.51432C12.0408 5.79757 12.3339 6.25663 12.5098 6.53988C12.6857 6.82313 12.9788 7.31638 13.1596 7.63869C13.3403 7.96101 13.4918 8.22961 13.4967 8.23938C13.4967 8.24427 13.8093 8.12706 14.1855 7.97567C14.5617 7.82427 15.1577 7.57032 15.5046 7.41405C15.8515 7.25289 16.428 6.96475 16.7749 6.77429C17.1217 6.58383 17.664 6.2664 17.9718 6.06128C18.2796 5.86105 18.7389 5.52897 18.9929 5.32385C19.247 5.11874 19.5596 4.83549 19.6915 4.69875C19.8186 4.55712 19.926 4.4155 19.926 4.39108C19.926 4.36666 19.8674 4.28853 19.7941 4.22015C19.716 4.15178 19.4473 3.9369 19.1932 3.74156C18.9392 3.54621 18.5434 3.26785 18.3138 3.12134C18.0842 2.97483 17.6103 2.72088 17.2634 2.55484C16.9165 2.38391 16.3303 2.14949 15.9687 2.0274C15.6072 1.9102 15.0356 1.75392 14.6985 1.68555C14.3614 1.61718 13.8338 1.53904 13.526 1.51462C13.2182 1.48532 12.7101 1.46579 12.4023 1.47067C12.0945 1.47555 11.7427 1.48532 11.6206 1.49509C11.4985 1.50486 11.1711 1.54392 10.8878 1.58788ZM6.46634 3.26296C6.25137 3.40947 5.88984 3.6683 5.66022 3.84411C5.4306 4.01993 4.9909 4.42038 4.68311 4.72805C4.37043 5.0406 3.93073 5.5485 3.70111 5.85617C3.47149 6.16384 3.18324 6.58383 3.05622 6.78406C2.93408 6.98429 2.69469 7.43358 2.52858 7.7852C2.36247 8.13683 2.12796 8.71309 2.01071 9.0696C1.89834 9.42122 1.78598 9.80214 1.76643 9.9047L1.72735 10.0952C2.56278 10.1489 3.40798 10.1538 4.1457 10.1391C4.89319 10.1245 5.79213 10.0756 6.1732 10.0317C6.54939 9.98772 7.23337 9.89005 7.68773 9.81191C8.14208 9.73866 8.8798 9.59215 9.32439 9.49447C9.76897 9.3968 10.5507 9.19657 11.0588 9.05006C11.5669 8.89867 12.0114 8.76681 12.0456 8.74728C12.0847 8.72286 11.9675 8.48356 11.689 8.00497C11.4594 7.61428 11.0832 7.01359 10.8536 6.66197C10.6239 6.31035 10.2526 5.77315 10.0328 5.46548C9.81294 5.15781 9.42698 4.64991 9.17782 4.34224C8.93354 4.03458 8.50362 3.51203 8.23002 3.17994C7.95155 2.85274 7.70727 2.58414 7.68284 2.58414C7.65841 2.58414 7.46299 2.68181 7.24803 2.79413C7.03306 2.91134 6.6813 3.12134 6.46634 3.26296ZM20.5856 5.85617C20.3706 6.07593 20.0189 6.39337 19.8039 6.5643C19.5889 6.73034 19.1834 7.02336 18.9001 7.20894C18.6167 7.3994 18.0598 7.73637 17.6543 7.96101C17.2536 8.18078 16.6039 8.51287 16.213 8.69356C15.8222 8.87425 15.2066 9.14285 14.8451 9.29424C14.4835 9.44075 14.1904 9.58238 14.1953 9.60191C14.2002 9.62145 14.3467 9.94865 14.5177 10.3247C14.6887 10.7007 14.9525 11.3161 15.104 11.6921C15.2555 12.0681 15.3971 12.4344 15.4264 12.5077L15.4802 12.6444C16.0274 12.4881 16.5062 12.3807 16.897 12.3026C17.2878 12.2244 17.879 12.1219 18.2161 12.0828C18.5532 12.0388 19.2567 11.99 19.7795 11.9754C20.3657 11.9558 21.0058 11.9705 21.4406 12.0047C21.8314 12.0388 22.3884 12.1072 22.6864 12.1561C22.9844 12.2098 23.2971 12.2684 23.3899 12.2879L23.556 12.327C23.5023 11.57 23.4534 11.1305 23.4143 10.8619C23.3704 10.5933 23.2824 10.144 23.214 9.86075C23.1456 9.5775 23.0137 9.1282 22.9209 8.8596C22.8281 8.591 22.6033 8.06357 22.4226 7.68753C22.2369 7.31149 21.9096 6.74011 21.6946 6.41779C21.4797 6.09547 21.2305 5.74873 21.1377 5.64617L20.9764 5.4606L20.5856 5.85617ZM10.3992 10.7398C9.87646 10.8717 9.04103 11.0524 8.5427 11.1451C8.04437 11.2428 7.27734 11.36 6.83276 11.4186C6.38817 11.4723 5.76282 11.5407 5.44037 11.5651C5.11792 11.5944 4.2825 11.614 3.58386 11.614C2.88523 11.6091 2.13774 11.5944 1.92277 11.57C1.70781 11.5505 1.52216 11.5456 1.5075 11.5554C1.49284 11.5651 1.4733 11.8533 1.46353 12.1951C1.45376 12.537 1.4733 13.0986 1.50261 13.4502C1.53681 13.797 1.61498 14.3537 1.67849 14.6809C1.74689 15.0081 1.89834 15.5795 2.02048 15.9506C2.14262 16.3218 2.39179 16.9322 2.57744 17.3083C2.7582 17.6843 3.06111 18.2215 3.25164 18.5048C3.43729 18.7831 3.72554 19.1787 3.88676 19.3838C4.04799 19.5841 4.33624 19.9161 4.52677 20.1261C4.7222 20.3361 4.89319 20.5071 4.91762 20.5071C4.93716 20.5022 5.06418 20.2775 5.20586 20.004C5.34266 19.7306 5.58205 19.3155 5.7335 19.0908C5.88984 18.8613 6.1732 18.4755 6.36863 18.2362C6.56405 17.992 7.00864 17.5183 7.35551 17.1813C7.6975 16.8443 8.20071 16.3902 8.46942 16.1802C8.73812 15.9653 9.16805 15.643 9.4221 15.4672C9.67615 15.2865 10.1696 14.9739 10.5213 14.7639C10.8731 14.5539 11.5327 14.2023 11.987 13.9776C12.4414 13.753 13.0814 13.4649 13.4038 13.3379C13.7263 13.2158 14.0096 13.0986 14.0292 13.0839C14.0536 13.0693 13.9266 12.6933 13.7507 12.2537C13.5797 11.8093 13.2915 11.1403 13.1205 10.7642C12.9446 10.3882 12.7834 10.0756 12.7638 10.0707C12.7394 10.0707 12.4121 10.1635 12.0359 10.2807C11.6597 10.4028 10.922 10.6079 10.3992 10.7398ZM17.752 13.6456C17.3514 13.7139 16.7846 13.8214 16.4964 13.8897C16.2033 13.9532 15.9687 14.0265 15.9687 14.046C15.9687 14.0656 16.0323 14.3048 16.1153 14.5735C16.1984 14.842 16.3742 15.4769 16.5062 15.9897C16.6381 16.4976 16.8188 17.2985 16.9165 17.7722C17.0094 18.2411 17.1413 18.9883 17.2097 19.4327C17.2781 19.8722 17.3807 20.6682 17.4344 21.2005C17.4882 21.7329 17.5321 22.1968 17.5321 22.2407C17.5321 22.2994 17.5712 22.2945 17.7422 22.2066C17.8546 22.148 18.0891 22.0112 18.265 21.9038C18.4408 21.7963 18.8366 21.5229 19.1444 21.2933C19.4521 21.0638 19.97 20.6096 20.2925 20.2873C20.6198 19.965 21.0693 19.4473 21.2989 19.1396C21.5334 18.8271 21.8314 18.3876 21.9682 18.1629C22.105 17.9334 22.3395 17.4939 22.4861 17.1862C22.6326 16.8736 22.8427 16.3609 22.9502 16.0385C23.0577 15.7162 23.2043 15.2083 23.2678 14.9153C23.3362 14.6174 23.3997 14.2462 23.4046 14.0851L23.4192 13.7921C22.8134 13.6602 22.3981 13.587 22.1001 13.543C21.7728 13.4942 21.1425 13.4551 20.4879 13.4453C19.8967 13.4356 19.203 13.4502 18.9489 13.4746C18.6949 13.4991 18.1575 13.5772 17.752 13.6456ZM12.6466 15.2865C12.2557 15.472 11.6743 15.7846 11.3519 15.9751C11.0294 16.1655 10.5555 16.4634 10.3015 16.6392C10.0475 16.8199 9.61752 17.1374 9.34882 17.3522C9.08011 17.5671 8.65507 17.9383 8.40102 18.1825C8.14697 18.4266 7.77567 18.8222 7.57536 19.0664C7.37505 19.3057 7.10635 19.6573 6.97932 19.8478C6.8523 20.0333 6.65688 20.3752 6.53962 20.6047C6.42237 20.8294 6.29046 21.1322 6.2416 21.2738L6.14878 21.5326C6.81321 21.9526 7.31154 22.2261 7.68773 22.4117C8.06392 22.5924 8.59155 22.817 8.86026 22.9098C9.12897 23.0075 9.57844 23.1393 9.8618 23.2077C10.1452 23.2761 10.6142 23.3689 10.9122 23.4177C11.303 23.4812 11.733 23.5056 12.4756 23.5056C13.0863 23.5056 13.6774 23.4812 13.9412 23.4421C14.1806 23.4079 14.5812 23.3347 14.8206 23.281C15.06 23.2272 15.4509 23.1296 15.6903 23.0563L16.1202 22.9245C16.0762 22.4312 16.0274 21.938 15.9883 21.5082C15.9492 21.0784 15.8613 20.341 15.7929 19.8722C15.7245 19.3985 15.5926 18.6317 15.4997 18.1629C15.4069 17.6892 15.2359 16.9225 15.1138 16.4536C14.9965 15.9799 14.8255 15.3548 14.7376 15.0618C14.6301 14.7053 14.5519 14.5197 14.5031 14.5148C14.464 14.51 14.1904 14.6028 13.8924 14.7248C13.5944 14.842 13.0374 15.096 12.6466 15.2865Z" fill="#13151B"/>
</svg>
