<svg width="25" height="23" viewBox="0 0 25 23" fill="none" xmlns="http://www.w3.org/2000/svg">
<path fill-rule="evenodd" clip-rule="evenodd" d="M18.2081 0C22.0802 0 25 3.1593 25 7.34884V15.3349C25 17.4791 24.2419 19.4163 22.864 20.7907C21.6279 22.0221 20.0244 22.6744 18.2267 22.6744H6.76977C4.97558 22.6744 3.37326 22.0233 2.13605 20.7907C0.75814 19.4163 0 17.4791 0 15.3349V7.34884C0 3.1593 2.91977 0 6.79186 0H18.2081ZM18.2081 1.74419H6.79186C3.86744 1.74419 1.74419 4.10116 1.74419 7.34884V15.3349C1.74419 17.0128 2.32093 18.5116 3.36744 19.5547C4.26977 20.4558 5.44767 20.9302 6.77326 20.9302H18.2081C18.2105 20.9279 18.2198 20.9302 18.2267 20.9302C19.5535 20.9302 20.7302 20.4558 21.6326 19.5547C22.6802 18.5116 23.2558 17.0128 23.2558 15.3349V7.34884C23.2558 4.10116 21.1326 1.74419 18.2081 1.74419ZM20.0407 7.12651C20.3442 7.49977 20.2872 8.0486 19.914 8.35326L14.7465 12.5533C14.093 13.0719 13.3116 13.3312 12.5314 13.3312C11.7535 13.3312 10.9779 13.0742 10.3291 12.5602L5.11395 8.35558C4.73837 8.05326 4.68023 7.50326 4.9814 7.12884C5.28488 6.75558 5.83372 6.69628 6.20814 6.99744L11.4186 11.1974C12.0733 11.716 12.9953 11.716 13.6547 11.1928L18.8128 6.99977C19.1872 6.69395 19.736 6.75209 20.0407 7.12651Z" fill="#13151B"/>
</svg>
