<svg width="19" height="17" viewBox="0 0 19 17" fill="none" xmlns="http://www.w3.org/2000/svg">
<path d="M1.19383 16.0805C0.86841 15.6927 0.887662 15.1303 1.21901 14.7659L1.31709 14.6716L14.7836 3.37291L5.85332 2.61002C5.30303 2.56307 4.895 2.07891 4.94195 1.52863C4.98463 1.02837 5.38864 0.645673 5.87518 0.615501L6.02334 0.617259L17.3656 1.58498C17.4382 1.59116 17.5082 1.60495 17.5751 1.62547C17.5947 1.63211 17.6147 1.63893 17.6345 1.64639C17.6519 1.65237 17.6691 1.65941 17.686 1.6669C17.7102 1.67814 17.7346 1.69016 17.7587 1.70322C17.7775 1.71302 17.795 1.72328 17.8121 1.73403C17.8331 1.74757 17.8549 1.76245 17.8762 1.77826C17.8913 1.78913 17.9052 1.80008 17.9189 1.81139C17.9389 1.82838 17.959 1.84648 17.9786 1.86553C17.9936 1.87988 18.0079 1.89468 18.0217 1.9099C18.0298 1.91931 18.0384 1.92912 18.0468 1.93915L18.0713 1.96914C18.0834 1.98467 18.0949 2.00055 18.106 2.01677L18.0468 1.93915C18.0874 1.98749 18.1226 2.03854 18.1525 2.09158C18.1597 2.1042 18.1668 2.11743 18.1735 2.13083C18.1874 2.15845 18.1998 2.18594 18.2108 2.21378C18.2163 2.22758 18.2219 2.24261 18.2271 2.2578C18.2375 2.28836 18.2462 2.3185 18.2535 2.34888C18.2569 2.36312 18.2602 2.37833 18.2631 2.39365C18.2678 2.4187 18.2715 2.44314 18.2743 2.46765C18.2763 2.48498 18.2779 2.50343 18.279 2.52199L18.2798 2.53639C18.2818 2.58067 18.2808 2.62501 18.277 2.66909L18.2766 2.67057L17.2609 14.0096C17.2117 14.5597 16.7258 14.9657 16.1757 14.9164C15.6756 14.8716 15.2946 14.466 15.2665 13.9793L15.2689 13.8312L16.0672 4.90671L2.60266 16.2037C2.17959 16.5587 1.54883 16.5035 1.19383 16.0805Z" fill="white"/>
</svg>
