<svg width="25" height="25" viewBox="0 0 25 25" fill="none" xmlns="http://www.w3.org/2000/svg">
<path d="M24.0543 7.09008C23.9978 5.80872 23.7906 4.9278 23.4937 4.16446C23.1874 3.35421 22.7162 2.62878 22.0989 2.02574C21.4957 1.4133 20.7654 0.937419 19.9643 0.635987C19.1965 0.339156 18.32 0.131945 17.0384 0.0754498C15.7472 0.0141698 15.3373 0 12.0625 0C8.78772 0 8.37782 0.0141698 7.09143 0.0706652C5.80983 0.127161 4.92874 0.334556 4.16544 0.631203C3.35485 0.937419 2.62929 1.40852 2.02612 2.02574C1.41357 2.62878 0.937781 3.35899 0.636109 4.15986C0.339221 4.9278 0.13197 5.80393 0.0754642 7.08529C0.0141725 8.37622 0 8.78605 0 12.0602C0 15.3344 0.0141725 15.7442 0.0706787 17.0303C0.127185 18.3117 0.33462 19.1926 0.631507 19.9559C0.937781 20.7662 1.41357 21.4916 2.02612 22.0947C2.62929 22.7071 3.35963 23.183 4.16066 23.4844C4.92874 23.7812 5.80504 23.9885 7.08683 24.045C8.37304 24.1016 8.78312 24.1156 12.0579 24.1156C15.3327 24.1156 15.7426 24.1016 17.029 24.045C18.3106 23.9885 19.1917 23.7812 19.955 23.4844C21.576 22.8578 22.8576 21.5765 23.4843 19.9559C23.781 19.188 23.9884 18.3117 24.0449 17.0303C24.1014 15.7442 24.1156 15.3344 24.1156 12.0602C24.1156 8.78605 24.1108 8.37622 24.0543 7.09008ZM21.8822 16.9361C21.8303 18.1139 21.6325 18.7498 21.4676 19.1738C21.0623 20.2244 20.2283 21.0582 19.1775 21.4635C18.7534 21.6283 18.1127 21.8262 16.9393 21.8779C15.6671 21.9346 15.2856 21.9485 12.0673 21.9485C8.84901 21.9485 8.46267 21.9346 7.19506 21.8779C6.01708 21.8262 5.38097 21.6283 4.9569 21.4635C4.43399 21.2702 3.95801 20.964 3.57167 20.5636C3.17116 20.1725 2.86488 19.7014 2.67162 19.1786C2.5067 18.7546 2.30884 18.1139 2.25712 16.9409C2.20043 15.6689 2.18644 15.2872 2.18644 12.0696C2.18644 8.85192 2.20043 8.46566 2.25712 7.19847C2.30884 6.02072 2.5067 5.38473 2.67162 4.96074C2.86488 4.43774 3.17116 3.96204 3.57645 3.57559C3.9674 3.17515 4.43859 2.86894 4.96168 2.67589C5.38576 2.51101 6.02665 2.31318 7.19984 2.26129C8.47206 2.20479 8.8538 2.19062 12.0719 2.19062C15.2949 2.19062 15.6765 2.20479 16.9441 2.26129C18.1221 2.31318 18.7582 2.51101 19.1823 2.67589C19.7052 2.86894 20.1812 3.17515 20.5675 3.57559C20.968 3.96664 21.2743 4.43774 21.4676 4.96074C21.6325 5.38473 21.8303 6.02532 21.8822 7.19847C21.9387 8.47044 21.9529 8.85192 21.9529 12.0696C21.9529 15.2872 21.9387 15.6641 21.8822 16.9361Z" fill="white"/>
<path d="M12.0578 6.02884C8.7294 6.02884 6.0289 8.72916 6.0289 12.0577C6.0289 15.3863 8.7294 18.0866 12.0578 18.0866C15.3864 18.0866 18.0867 15.3863 18.0867 12.0577C18.0867 8.72916 15.3864 6.02884 12.0578 6.02884ZM12.0578 15.9685C9.89851 15.9685 8.147 14.2172 8.147 12.0577C8.147 9.89827 9.89851 8.14694 12.0578 8.14694C14.2173 8.14694 15.9686 9.89827 15.9686 12.0577C15.9686 14.2172 14.2173 15.9685 12.0578 15.9685Z" fill="white"/>
<path d="M19.9705 5.65225C19.9705 6.48459 19.2957 7.15947 18.4632 7.15947C17.6309 7.15947 16.9561 6.48459 16.9561 5.65225C16.9561 4.81971 17.6309 4.14502 18.4632 4.14502C19.2957 4.14502 19.9705 4.81971 19.9705 5.65225Z" fill="white"/>
</svg>
