<svg width="25" height="14" viewBox="0 0 25 14" fill="none" xmlns="http://www.w3.org/2000/svg">
<path d="M6.17676 0.0723983C5.93262 0.110766 5.55176 0.187502 5.32227 0.240258C5.09277 0.297811 4.74609 0.403323 4.55078 0.480059C4.36035 0.556795 4.05273 0.691083 3.87207 0.782207C3.68652 0.868535 3.34473 1.07476 3.10059 1.23303C2.85645 1.3913 2.48535 1.67906 2.27539 1.8757C2.06543 2.06754 1.74805 2.39846 1.57715 2.60949C1.40625 2.82051 1.14746 3.1898 1.00586 3.42481C0.859375 3.65981 0.683594 3.99553 0.610352 4.16819C0.537109 4.34084 0.424805 4.6334 0.356445 4.81565C0.292969 4.9979 0.185547 5.41035 0.12207 5.72689C0.0244141 6.18251 0 6.44629 0 6.99783C0 7.55896 0.0244141 7.80836 0.126953 8.29275C0.195312 8.62368 0.317383 9.0745 0.400391 9.29991C0.478516 9.52533 0.644531 9.90421 0.766602 10.1392C0.888672 10.3742 1.11328 10.7531 1.27441 10.9785C1.43066 11.2039 1.70898 11.5444 1.88965 11.7411C2.07031 11.9377 2.37305 12.2207 2.56348 12.3694C2.75391 12.5228 3.05664 12.7387 3.24707 12.8586C3.43262 12.9785 3.73047 13.1463 3.90625 13.2326C4.08203 13.319 4.38965 13.4533 4.58984 13.5252C4.79004 13.6019 5.13184 13.7074 5.34668 13.7602C5.56152 13.813 5.9668 13.8849 6.25 13.9281C6.5332 13.9664 6.89453 14 7.05566 14C7.2168 14 7.57812 13.9664 7.86133 13.9281C8.14453 13.8849 8.50586 13.8225 8.66699 13.7842C8.82812 13.7506 9.16016 13.6499 9.39941 13.5684C9.63867 13.482 10.0488 13.3094 10.3027 13.1751C10.5566 13.0456 10.9424 12.8154 11.1572 12.6667C11.3672 12.518 11.7334 12.2111 11.9629 11.9857C12.1973 11.7603 12.5244 11.3958 12.6904 11.1704C12.8613 10.9449 13.0762 10.6236 13.1738 10.451C13.2715 10.2783 13.4375 9.94258 13.54 9.70758C13.6475 9.47257 13.7939 9.04093 13.8672 8.74837C13.9453 8.45582 14.0332 7.93785 14.0674 7.59733C14.1162 7.09855 14.1162 6.85395 14.0674 6.37435C14.0332 6.04343 13.9453 5.53985 13.8672 5.24729C13.7939 4.95473 13.6475 4.52309 13.54 4.28809C13.4375 4.05308 13.2715 3.71736 13.1738 3.54471C13.0762 3.37205 12.8613 3.05072 12.6953 2.82531C12.5244 2.59989 12.1973 2.2354 11.9678 2.00998C11.7334 1.78457 11.3477 1.46324 11.1084 1.30018C10.8643 1.13232 10.4297 0.878127 10.1318 0.739043C9.83398 0.595163 9.41895 0.427303 9.2041 0.360159C8.98926 0.293015 8.71582 0.216278 8.59375 0.192298C8.47168 0.168318 8.14453 0.110766 7.86133 0.0676023C7.57812 0.0292343 7.18262 -0.00433783 6.98242 0.000458177C6.78223 0.00525418 6.41602 0.0388262 6.17676 0.0723983ZM23.6475 1.14191C23.5889 1.16589 23.5107 1.22344 23.4717 1.2714C23.4277 1.32416 23.3301 1.50161 23.2471 1.67426C23.1641 1.84692 23.042 2.20183 22.9736 2.46561C22.9053 2.72939 22.8076 3.23776 22.7539 3.59267C22.7051 3.94757 22.6318 4.5183 22.6025 4.86361C22.5684 5.20892 22.5391 6.15373 22.5391 6.97385C22.5391 7.79397 22.5684 8.75317 22.5977 9.10807C22.6318 9.46298 22.7051 10.0481 22.7539 10.403C22.8076 10.7579 22.9053 11.2663 22.9736 11.5301C23.042 11.7938 23.1689 12.1583 23.2568 12.3406C23.3447 12.518 23.457 12.7051 23.5107 12.753C23.5645 12.801 23.6572 12.849 23.7158 12.8681C23.7988 12.8873 23.8721 12.8585 23.9795 12.7674C24.0674 12.6907 24.1748 12.5564 24.2188 12.4653C24.2676 12.3742 24.3604 12.1248 24.4336 11.9137C24.502 11.7027 24.5996 11.3142 24.6533 11.0505C24.707 10.7867 24.7852 10.3023 24.8242 9.97136C24.8682 9.64043 24.9219 9.02654 24.9512 8.60449C24.9756 8.18245 25 7.45825 25 6.99783C25 6.53741 24.9756 5.81322 24.9512 5.39117C24.9219 4.96912 24.8682 4.35523 24.8242 4.02431C24.7852 3.69338 24.707 3.20899 24.6533 2.94521C24.5996 2.68143 24.502 2.29295 24.4336 2.08192C24.3604 1.8709 24.2676 1.62151 24.2188 1.53038C24.1748 1.43926 24.0674 1.30497 23.9795 1.23303C23.8965 1.1563 23.8135 1.09874 23.7891 1.10354C23.7695 1.10354 23.7061 1.12272 23.6475 1.14191ZM17.8223 0.504039C17.6758 0.542407 17.4463 0.633531 17.3096 0.705471C17.1777 0.777411 16.9189 0.974048 16.7334 1.1467C16.5479 1.31936 16.2793 1.6311 16.1377 1.84212C15.9961 2.05315 15.8203 2.34571 15.7471 2.48959C15.6738 2.63347 15.5371 2.93561 15.4492 3.16103C15.3613 3.38644 15.2344 3.78451 15.1611 4.04829C15.0928 4.31207 14.9902 4.78687 14.9365 5.10341C14.8682 5.48709 14.8291 6.00506 14.8096 6.66211C14.79 7.3911 14.8047 7.81315 14.8584 8.29275C14.9023 8.64766 14.9707 9.11287 15.0146 9.32389C15.0586 9.53492 15.1611 9.93299 15.2441 10.2112C15.3223 10.4893 15.4785 10.9114 15.5811 11.1464C15.6885 11.3814 15.874 11.7507 16.0059 11.9617C16.1426 12.1871 16.4062 12.5132 16.6504 12.7578C16.9482 13.0552 17.1533 13.2135 17.3828 13.3238C17.5586 13.4053 17.832 13.5012 17.9932 13.53C18.2178 13.5732 18.3643 13.5732 18.6035 13.53C18.7793 13.5012 19.0625 13.4053 19.2383 13.319C19.4189 13.2278 19.6973 13.0312 19.8926 12.849C20.0732 12.6763 20.3418 12.3646 20.4883 12.1535C20.6299 11.9425 20.835 11.5876 20.9375 11.3622C21.0449 11.1368 21.1865 10.7915 21.2549 10.5948C21.3232 10.3982 21.4355 10.0193 21.5039 9.75554C21.5723 9.49175 21.6602 9.05052 21.7041 8.77235C21.748 8.49419 21.7969 7.83713 21.8115 7.30957C21.8311 6.60456 21.8164 6.17771 21.7627 5.70291C21.7188 5.34801 21.6504 4.88279 21.6064 4.67177C21.5625 4.46074 21.46 4.06268 21.377 3.78451C21.2988 3.50634 21.1426 3.08429 21.04 2.84929C20.9326 2.61428 20.7471 2.24499 20.6152 2.03396C20.4785 1.80376 20.2197 1.48722 19.9707 1.24262C19.7412 1.01721 19.4434 0.772615 19.3115 0.705471C19.1748 0.633531 18.9355 0.542407 18.7744 0.504039C18.6133 0.460875 18.3936 0.427303 18.2861 0.432099C18.1787 0.432099 17.9688 0.465671 17.8223 0.504039Z" fill="#191919"/>
</svg>
