<svg width="25" height="26" viewBox="0 0 25 26" fill="none" xmlns="http://www.w3.org/2000/svg">
<path fill-rule="evenodd" clip-rule="evenodd" d="M12.5053 0C15.6774 0 18.2639 2.56777 18.2985 5.73575L18.5795 5.73705C22.1205 5.73705 25 8.61526 25 12.1537V19.2255C25 22.7627 22.1205 25.6409 18.5795 25.6409H6.42051C2.88077 25.6409 0 22.7627 0 19.2255V12.1537C0 8.61526 2.88077 5.73705 6.42051 5.73705L6.68205 5.7359L6.69018 5.48657C6.77069 4.03213 7.3697 2.69786 8.39756 1.68077C9.49756 0.589744 10.9745 0.0448718 12.5053 0ZM18.5795 7.66013L18.2987 7.65897L18.2988 9.68718C18.2988 10.2179 17.8681 10.6487 17.3373 10.6487C16.8065 10.6487 16.3758 10.2179 16.3758 9.68718L16.3756 7.65897H8.60385L8.60397 9.68718C8.60397 10.2179 8.17321 10.6487 7.64244 10.6487C7.11167 10.6487 6.6809 10.2179 6.6809 9.68718L6.68077 7.65897L6.42051 7.66013C3.94103 7.66013 1.92308 9.67551 1.92308 12.1537V19.2255C1.92308 21.7024 3.94103 23.7178 6.42051 23.7178H18.5795C21.059 23.7178 23.0769 21.7024 23.0769 19.2255V12.1537C23.0769 9.67551 21.059 7.66013 18.5795 7.66013ZM12.5014 1.92308C11.4617 1.95897 10.4873 2.31795 9.75141 3.04615C9.02619 3.76506 8.61972 4.71804 8.6044 5.73577L16.3731 5.7359L16.3692 5.5726C16.2512 3.54077 14.5623 1.92308 12.5014 1.92308Z" fill="#13151B"/>
</svg>
